PathFileType	4	(X/Y/Z)	C:/Users/beibeiliu/ov580/test_trc/User2\sequence.25_training_dense_right.trc
DataRate	CameraRate	NumFrames	NumMarkers	Units	OrigDataRate	OrigDataStartFrame	OrigNumFrames
120	120	22	19	mm	120	60	118
Frame#	Time	ThumbCMC			ThumbMCP			ThumbIP			ThumbTip			IndexMCP			IndexPIP			IndexTip			MiddleMCP			MiddlePIP			MiddleTip			RingMCP			RingPIP			RingTip			PinkyMCP			PinkyPIP			PinkyTip			BackHand1			BackHand2			BackHand3	
		X0	Y0	Z0	X1	Y1	Z1	X2	Y2	Z2	X3	Y3	Z3	X4	Y4	Z4	X5	Y5	Z5	X6	Y6	Z6	X7	Y7	Z7	X8	Y8	Z8	X9	Y9	Z9	X10	Y10	Z10	X11	Y11	Z11	X12	Y12	Z12	X13	Y13	Z13	X14	Y14	Z14	X15	Y15	Z15	X16	Y16	Z16	X17	Y17	Z17	X18	Y18	Z18	
59	0.491667	155.946	56.122	-32.4386	150.217	81.5617	-51.5901	143.479	95.5192	-81.0408	135.881	112.095	-94.4953	144.307	37.2352	-113.028	112.672	29.4499	-115.53	103.441	26.5537	-79.9561	139.84	9.14489	-113.709	103.812	7.85567	-106.48	100.42	16.3216	-69.1442	141.156	-12.9973	-109.819	108.061	-11.6949	-107.05	103.731	1.0102	-74.0336	157.505	-37.8274	-89.4346	149.841	-50.2641	-109.961	147.764	-59.0733	-131.73	178.607	-5.12629	-58.37	185.733	-2.69342	-20.5891	182.825	29.9751	-41.4633	
60	0.5	142.198	63.3056	-23.4248	132.518	79.607	-45.4874	122.37	100.874	-70.4709	111.317	116.341	-86.6517	141.883	43.3292	-111.146	110.033	31.3807	-112.776	100.225	26.0469	-78.5594	147.439	21.5685	-110.253	111.05	11.2962	-109.642	104.434	11.315	-65.6227	150.315	-4.02509	-111.312	121.028	-9.70915	-109.499	110.978	-1.5257	-74.9804	173.265	-24.7097	-89.1351	171.389	-31.9908	-116.429	176.076	-44.6669	-132.772	184.876	8.43338	-53.1145	187.912	10.1169	-18.1557	177.087	43.7824	-38.7011	
61	0.508333	124.379	63.7044	-21.1641	106.474	82.4598	-35.3246	92.9129	100.561	-62.5156	82.5265	107.623	-80.1376	133.384	57.4489	-102.837	109.424	32.2177	-112.648	97.3636	23.378	-82.5733	146.253	31.686	-106.088	111.55	13.5595	-109.374	102.617	10.2866	-71.0693	154.87	15.8481	-108.713	129.639	0.523323	-114.642	114.549	-1.06313	-80.1167	182.72	0.471417	-91.6412	186.568	-8.86771	-111.27	197.711	-12.0704	-138.063	179.857	26.0966	-49.9433	181.559	25.163	-14.9638	160.055	58.4535	-30.3977	
62	0.516667	105.965	59.5675	-16.1711	86.9622	73.1199	-33.4403	70.0639	91.9058	-60.5106	56.225	99.7886	-75.1033	121.977	60.4516	-99.0546	105.351	36.2037	-112.592	92.8017	19.2489	-81.0373	136.358	40.8024	-108.706	110.909	16.4052	-110.712	103.76	6.14547	-70.0955	154.588	27.0474	-105.72	127.062	8.31837	-114.321	115.822	1.84986	-78.0155	183.064	16.3376	-85.7225	190.545	15.7569	-111.828	201.205	17.9635	-134.801	169.674	39.0856	-42.9349	172.431	33.3984	-9.01253	143.864	60.7999	-27.0659	
63	0.525	90.4304	51.7371	-16.1493	70.8011	62.8278	-33.5045	50.5829	78.4908	-56.2905	34.2941	86.5901	-74.8439	108.91	58.5579	-97.3777	90.2275	31.796	-110.818	91.4756	13.3994	-78.6066	127.558	43.4925	-103.61	108.541	15.4835	-111.229	100.927	0.944612	-68.9694	147.502	32.6015	-103.097	128.164	8.95815	-114.167	114.51	-0.4616	-82.5895	176.008	26.5903	-82.6435	182.504	29.2888	-105.748	197.397	33.7767	-126.862	159.576	45.74	-42.6769	158.981	36.7941	-5.97827	126.412	60.5959	-23.6155	
64	0.533333	80.2211	43.0739	-10.1776	56.9294	57.0531	-32.9458	36.2385	66.5323	-53.4682	22.3521	73.6477	-74.754	93.4115	55.7923	-95.0655	80.647	23.0292	-107.833	82.015	6.82678	-76.4266	113.209	41.0215	-102.043	100.853	7.45362	-107.683	90.1359	-4.21809	-70.7037	136.132	30.3335	-101.841	118.153	1.06045	-110.975	104.953	-5.27299	-81.445	164.898	27.8872	-81.8807	175.804	28.94	-105.238	189.625	32.83	-122.764	149.023	43.599	-41.56	149.353	37.7567	-5.0676	116.313	56.3579	-20.353	
65	0.541667	67.5804	36.9552	-12.2488	47.9961	42.7778	-33.6157	25.6461	52.8021	-56.2433	10.5383	54.7211	-75.0228	82.9607	40.0691	-96.1952	75.621	6.88741	-105.965	72.2277	-6.49866	-75.5184	105.478	22.9173	-104.544	90.4273	-7.67732	-104.974	79.9345	-16.2638	-68.3647	121.785	16.2132	-102.917	106.021	-10.0402	-108.226	93.0046	-16.3442	-74.29	154.14	17.298	-83.0161	166.685	14.7331	-106.247	175.63	18.8728	-123.575	136.83	35.7288	-39.1812	135.496	32.8707	-4.27283	106.609	51.5514	-24.3933	
66	0.55	56.7929	27.7566	-12.3478	37.0588	29.6802	-32.3294	13.8535	38.4622	-59.5085	-0.258453	37.3839	-76.5337	72.0834	19.1054	-97.8769	60.94	-9.46342	-104.137	60.1921	-19.2227	-65.6841	93.4877	8.56614	-100.167	79.1079	-25.9583	-99.5784	72.3291	-28.4461	-57.8743	112.435	-2.85036	-102.788	95.8313	-31.0073	-101.105	84.1116	-31.5211	-69.2924	143.748	3.51802	-81.0553	151.703	-0.919619	-101.042	167.758	-0.460057	-122.829	128.252	26.4408	-43.7018	127.261	25.8024	-8.09138	94.1689	40.3799	-23.538	
67	0.558333	49.4494	23.4327	-10.7821	29.847	23.5185	-32.0501	9.38006	27.235	-59.5564	-10.1016	27.3507	-72.7959	63.3971	7.39654	-95.9342	51.9539	-23.0674	-96.491	55.0624	-27.1529	-60.2909	80.1981	-5.67497	-99.8903	70.73	-37.6108	-93.3879	65.2353	-37.3688	-53.4924	105.298	-12.1101	-96.6249	88.2222	-40.503	-97.9005	77.3828	-41.0735	-63.0281	136.951	-7.83115	-78.5069	144.705	-11.8146	-105.59	156.87	-14.839	-122.552	118.336	19.8187	-41.2117	122.959	22.6527	-6.28668	84.6067	36.7155	-27.1191	
68	0.566667	47.5208	22.6137	-9.35461	28.2741	22.5374	-28.3296	0.821187	29.1974	-53.3662	-15.6834	28.9198	-68.2128	56.1944	1.0085	-90.9455	45.5078	-30.0562	-90.9035	43.4699	-28.7632	-54.146	74.6532	-17.0384	-96.9373	60.1904	-45.0368	-85.0353	56.2769	-38.5831	-44.8587	95.8065	-25.2496	-94.5163	75.4783	-49.2429	-90.258	65.9566	-42.9007	-53.0643	127.243	-18.9297	-79.5956	131.799	-27.4412	-100.202	143.374	-33.9793	-126.223	112.043	13.9153	-42.0256	118.618	18.2148	-11.3896	86.2081	31.2082	-28.4627	
69	0.575	54.4272	29.0797	-12.6261	32.0252	34.3149	-27.2619	6.23749	43.7927	-53.3193	-11.7205	44.9714	-63.6233	44.3055	-0.636952	-89.6569	29.2418	-26.6051	-81.0431	33.5009	-21.664	-45.9422	62.1887	-18.4154	-91.2404	40.7879	-42.6795	-75.4808	47.668	-32.0559	-35.7727	81.8488	-32.0042	-89.287	57.6654	-51.0157	-81.9087	56.9668	-41.9472	-44.6306	113.583	-32.3814	-80.635	119.069	-48.1002	-96.3444	122.792	-59.3288	-118.661	112.214	4.03916	-46.5844	117.1	14.8588	-10.8109	86.3607	31.4732	-26.1653	
70	0.583333	61.339	40.4814	-9.99934	38.7927	49.6761	-28.8713	14.8446	66.2378	-49.6937	-2.7255	71.3507	-63.4979	40.6186	5.23316	-86.5957	18.3908	-11.8093	-73.9073	27.2211	-1.67223	-37.8596	54.277	-15.3406	-86.0596	25.7794	-28.7177	-69.1241	36.5163	-18.9044	-30.5419	65.111	-29.0665	-84.3508	38.6643	-42.8263	-73.7313	40.8372	-26.5235	-39.6457	98.5009	-39.3812	-78.4461	95.843	-58.3336	-96.9845	93.6925	-68.0605	-114.689	107.251	-1.83941	-47.4793	117.873	8.26355	-16.7755	94.2869	33.4778	-31.6306	
71	0.591667	72.4886	53.2463	-12.6	54.5514	71.6872	-27.3495	33.8656	84.3708	-53.3365	16.777	98.526	-67.7755	38.6063	23.8894	-84.1193	12.941	9.4419	-68.9494	21.1153	17.431	-37.3271	39.0557	0.320705	-82.3038	13.0614	-6.50961	-61.6789	30.325	7.97444	-24.4875	47.5811	-20.5261	-79.7467	22.6373	-27.0929	-64.1468	33.5433	-6.91761	-31.5418	76.1835	-40.4558	-70.1989	65.371	-53.5811	-88.4195	57.1711	-67.7284	-104.681	103.62	-3.8139	-44.8355	117.4	4.7879	-12.5365	98.5514	33.8499	-28.8503	
72	0.6	88.2113	58.4462	-12.5463	74.6817	80.2757	-34.6932	59.643	98.2192	-58.7321	46.2759	113.612	-73.2881	44.1453	36.4046	-83.6019	11.4375	34.7681	-68.3243	25.2911	37.5416	-35.7279	34.927	14.3706	-79.7305	8.09721	16.1975	-55.7292	28.4836	27.2982	-24.6225	36.7949	-6.09727	-75.9917	9.49239	2.28847	-58.7336	27.8792	10.812	-28.0882	54.3915	-31.6423	-65.9111	33.7268	-43.7201	-83.8206	22.22	-58.4432	-98.8569	94.4431	-6.68509	-44.3696	110.74	-4.632	-18.222	102.223	32.5512	-36.2063	
73	0.608333	102	57.4655	-20.2753	98.9008	83.2265	-37.7404	86.8284	101.119	-63.0758	80.4127	118.078	-78.5576	50.3144	48.7609	-85.9142	22.1429	62.0394	-72.448	32.4613	61.1626	-38.9625	36.1842	30.1999	-80.2566	12.7033	42.3488	-58.8914	37.0332	47.1391	-26.5271	30.6657	11.2795	-73.3921	5.52248	25.913	-54.2552	29.3857	33.0879	-26.8891	36.3244	-19.8363	-61.1595	13.2004	-26.2942	-74.6501	-3.53779	-33.831	-92.5273	83.4621	-4.93722	-44.5282	103.993	-7.84089	-14.6893	107.371	26.2842	-34.8351	
74	0.616667	118.418	53.9145	-23.1986	119.75	76.0317	-45.9666	117.646	96.8198	-69.5473	114.441	114.343	-87.665	64.255	59.6805	-87.8213	41.1439	81.4781	-73.9572	52.0515	76.1607	-41.2966	44.2942	47.4247	-81.0306	27.1435	67.6285	-57.5773	51.9249	63.5161	-28.0505	32.4978	30.5946	-72.5112	16.9137	56.1875	-52.3043	38.9537	57.2115	-28.5208	28.2299	1.54784	-58.1284	2.9971	3.77539	-72.6119	-14.4978	4.05878	-88.1925	76.0861	-2.45178	-43.8771	98.2321	-8.34761	-13.6003	110.414	20.5901	-41.0239	
75	0.625	133.014	48.4403	-28.3996	141.743	68.2975	-48.2173	144.794	88.7239	-74.1253	147.509	106.037	-95.709	77.6901	68.0486	-90.7795	63.9081	93.473	-77.839	77.3342	91.4106	-45.1336	59.6688	58.4556	-83.7286	49.1911	88.7768	-62.1297	74.7908	75.0913	-31.7317	37.5032	51.8337	-73.3813	32.8844	77.5902	-61.1928	56.151	74.9738	-31.795	29.9778	22.4177	-55.2201	8.81695	30.1352	-66.1543	-12.3299	33.9962	-82.6941	74.3335	5.3309	-42.3006	94.1014	-4.13298	-13.2805	115.826	17.3934	-43.3594	
76	0.633333	141.982	43.068	-29.2104	152.268	61.7255	-55.5742	158.327	80.5328	-79.2016	166.254	96.678	-97.8915	88.871	67.0813	-91.8318	83.1046	100.631	-83.137	94.0878	92.2649	-45.7577	68.6478	67.4236	-85.7913	63.9066	98.0255	-64.9081	87.3575	84.5565	-36.6487	50.6018	61.0133	-74.4476	48.1087	92.482	-60.6608	70.3901	86.6122	-34.7184	35.6291	38.5474	-55.754	16.0285	49.0876	-66.784	-3.25191	56.421	-84.652	79.2375	13.0295	-38.0501	90.4647	-1.78962	-15.1162	117.79	14.7657	-38.461	
77	0.641667	146.711	41.6137	-31.6344	154.716	59.6236	-52.3965	165.236	76.0629	-80.0035	172.324	92.4158	-99.8323	97.0755	73.1972	-96.8049	91.1703	101.358	-83.4434	101.849	93.2423	-49.4698	73.154	71.2089	-86.2391	75.3086	101.542	-69.9029	93.8141	84.5545	-37.0718	51.0997	69.412	-75.6855	57.3652	96.2122	-66.3076	79.6946	93.0136	-39.0397	35.8661	44.7628	-53.5695	16.6785	57.625	-67.2373	-2.27621	66.9411	-83.2654	78.838	18.0298	-40.814	90.103	3.54748	-14.3094	115.759	16.2085	-40.1494	
78	0.65	150.513	37.1491	-31.0843	161.069	53.6915	-53.0978	169.441	70.0348	-87.8441	170.628	84.6749	-106.198	100.436	63.8916	-95.255	97.9556	97.2103	-88.4138	108.553	88.4445	-53.7606	78.5652	63.6226	-88.3101	76.338	97.4058	-72.0561	98.9743	83.2805	-41.4639	56.4287	64.9379	-77.4387	59.5536	95.3101	-66.5528	83.6503	88.7427	-40.847	38.4159	45.2158	-58.9873	22.5794	56.2068	-69.2013	7.85908	64.6909	-87.7513	82.128	13.6592	-41.2123	97.189	-0.245782	-13.4474	118.745	13.1383	-41.4101	
79	0.658333	155.316	28.389	-36.17	167.249	40.9545	-60.0796	173.766	55.2269	-86.2992	176.709	67.0429	-110.825	109.688	53.6854	-105.009	102.675	83.3179	-94.1995	118.974	78.0966	-63.2588	87.5446	51.1695	-96.6661	85.5885	85.3194	-84.109	108.58	71.9979	-48.8607	67.4229	48.7217	-85.7238	68.6174	82.7214	-80.422	90.1276	78.0291	-49.9558	45.467	33.0898	-65.3384	34.3549	45.3154	-82.7718	14.1564	53.3821	-98.9228	88.5971	3.90078	-42.9203	101.707	-6.84196	-17.4492	126.951	3.76248	-41.9069	
80	0.666667	164.429	17.1577	-40.3246	175.849	29.6988	-68.1398	184.894	41.5182	-95.8528	193.69	52.579	-117.207	116.66	32.9622	-113.349	112.123	64.9365	-107.715	122.699	64.247	-72.796	95.3563	32.3989	-105.788	90.6625	66.5854	-95.3018	112.337	62.2298	-61.0561	76.2051	26.8894	-96.897	75.0645	59.2305	-96.1643	95.7347	64.0004	-64.9664	59.5736	11.7299	-76.2429	40.6472	21.638	-94.5202	24.2152	29.2189	-114.127	100.644	-11.1079	-49.2268	111.175	-17.9899	-20.4826	137.723	-8.64717	-46.0688	
